<svg xmlns="http://www.w3.org/2000/svg" width="1400" height="980" viewBox="0 0 1400 980">
  <defs>
    <linearGradient id="bg" x1="0" x2="1" y1="0" y2="1">
      <stop offset="0" stop-color="#0f172a"/>
      <stop offset="0.55" stop-color="#123047"/>
      <stop offset="1" stop-color="#075569"/>
    </linearGradient>
    <linearGradient id="card" x1="0" x2="1" y1="0" y2="1">
      <stop offset="0" stop-color="#ffffff" stop-opacity="0.98"/>
      <stop offset="1" stop-color="#e9f7fb" stop-opacity="0.94"/>
    </linearGradient>
    <filter id="shadow" x="-20%" y="-20%" width="140%" height="140%">
      <feDropShadow dx="0" dy="28" stdDeviation="30" flood-color="#020617" flood-opacity="0.28"/>
    </filter>
  </defs>
  <rect width="1400" height="980" fill="url(#bg)"/>
  <g opacity="0.12" stroke="#ffffff">
    <path d="M0 120H1400M0 260H1400M0 400H1400M0 540H1400M0 680H1400M0 820H1400"/>
    <path d="M160 0V980M340 0V980M520 0V980M700 0V980M880 0V980M1060 0V980M1240 0V980"/>
  </g>
  <circle cx="1160" cy="170" r="170" fill="#38bdf8" opacity="0.16"/>
  <circle cx="210" cy="800" r="230" fill="#f97316" opacity="0.12"/>
  <g filter="url(#shadow)">
    <rect x="190" y="165" width="1020" height="650" rx="28" fill="url(#card)"/>
    <rect x="240" y="215" width="920" height="64" rx="14" fill="#0f172a"/>
    <circle cx="278" cy="247" r="8" fill="#ef4444"/>
    <circle cx="306" cy="247" r="8" fill="#f59e0b"/>
    <circle cx="334" cy="247" r="8" fill="#22c55e"/>
    <rect x="265" y="330" width="370" height="225" rx="20" fill="#ffffff" stroke="#d9e2ea"/>
    <rect x="265" y="590" width="370" height="145" rx="20" fill="#ffffff" stroke="#d9e2ea"/>
    <rect x="680" y="330" width="445" height="405" rx="20" fill="#ffffff" stroke="#d9e2ea"/>
    <rect x="305" y="370" width="170" height="16" rx="8" fill="#087ea4"/>
    <rect x="305" y="410" width="280" height="12" rx="6" fill="#94a3b8"/>
    <rect x="305" y="440" width="230" height="12" rx="6" fill="#cbd5e1"/>
    <rect x="305" y="475" width="92" height="46" rx="10" fill="#f97316"/>
    <rect x="422" y="475" width="92" height="46" rx="10" fill="#e0f2fe"/>
    <rect x="305" y="630" width="270" height="14" rx="7" fill="#0f172a"/>
    <rect x="305" y="670" width="300" height="12" rx="6" fill="#cbd5e1"/>
    <g transform="translate(740 383)">
      <rect x="0" y="0" width="325" height="56" rx="14" fill="#f8fafc" stroke="#d9e2ea"/>
      <rect x="0" y="84" width="325" height="56" rx="14" fill="#f8fafc" stroke="#d9e2ea"/>
      <rect x="0" y="168" width="325" height="56" rx="14" fill="#f8fafc" stroke="#d9e2ea"/>
      <rect x="0" y="252" width="325" height="56" rx="14" fill="#f8fafc" stroke="#d9e2ea"/>
      <circle cx="32" cy="28" r="10" fill="#16a34a"/>
      <circle cx="32" cy="112" r="10" fill="#087ea4"/>
      <circle cx="32" cy="196" r="10" fill="#f97316"/>
      <circle cx="32" cy="280" r="10" fill="#16a34a"/>
      <rect x="58" y="20" width="138" height="12" rx="6" fill="#0f172a"/>
      <rect x="58" y="104" width="165" height="12" rx="6" fill="#0f172a"/>
      <rect x="58" y="188" width="128" height="12" rx="6" fill="#0f172a"/>
      <rect x="58" y="272" width="156" height="12" rx="6" fill="#0f172a"/>
      <rect x="235" y="19" width="54" height="18" rx="9" fill="#dcfce7"/>
      <rect x="235" y="103" width="54" height="18" rx="9" fill="#e0f2fe"/>
      <rect x="235" y="187" width="54" height="18" rx="9" fill="#ffedd5"/>
      <rect x="235" y="271" width="54" height="18" rx="9" fill="#dcfce7"/>
    </g>
  </g>
</svg>
