<svg xmlns="http://www.w3.org/2000/svg" width="1200" height="900" viewBox="0 0 1200 900">
  <defs>
    <linearGradient id="bg" x1="0" x2="1" y1="0" y2="1">
      <stop offset="0" stop-color="#f8fafc"/>
      <stop offset="1" stop-color="#dff4f7"/>
    </linearGradient>
    <linearGradient id="screen" x1="0" x2="1" y1="0" y2="1">
      <stop offset="0" stop-color="#0f172a"/>
      <stop offset="1" stop-color="#0b4f63"/>
    </linearGradient>
    <filter id="shadow" x="-20%" y="-20%" width="140%" height="140%">
      <feDropShadow dx="0" dy="24" stdDeviation="28" flood-color="#0f172a" flood-opacity="0.18"/>
    </filter>
  </defs>
  <rect width="1200" height="900" fill="url(#bg)"/>
  <circle cx="1030" cy="160" r="150" fill="#f97316" opacity="0.12"/>
  <circle cx="180" cy="740" r="190" fill="#087ea4" opacity="0.12"/>
  <g filter="url(#shadow)">
    <rect x="145" y="120" width="910" height="610" rx="30" fill="#ffffff"/>
    <rect x="195" y="176" width="810" height="470" rx="22" fill="url(#screen)"/>
    <rect x="245" y="230" width="295" height="34" rx="17" fill="#ffffff"/>
    <rect x="245" y="292" width="410" height="16" rx="8" fill="#bae6fd" opacity="0.82"/>
    <rect x="245" y="328" width="340" height="16" rx="8" fill="#bae6fd" opacity="0.54"/>
    <rect x="245" y="386" width="138" height="54" rx="12" fill="#f97316"/>
    <rect x="405" y="386" width="138" height="54" rx="12" fill="#ffffff" opacity="0.14"/>
    <rect x="690" y="230" width="250" height="290" rx="22" fill="#ffffff" opacity="0.12"/>
    <rect x="730" y="270" width="170" height="14" rx="7" fill="#ffffff" opacity="0.74"/>
    <rect x="730" y="310" width="130" height="14" rx="7" fill="#ffffff" opacity="0.42"/>
    <rect x="730" y="365" width="170" height="96" rx="14" fill="#ffffff" opacity="0.18"/>
    <path d="M250 585H950" stroke="#ffffff" stroke-opacity="0.18" stroke-width="2"/>
    <rect x="245" y="600" width="110" height="18" rx="9" fill="#ffffff" opacity="0.45"/>
    <rect x="390" y="600" width="110" height="18" rx="9" fill="#ffffff" opacity="0.45"/>
    <rect x="535" y="600" width="110" height="18" rx="9" fill="#ffffff" opacity="0.45"/>
  </g>
  <g transform="translate(770 570)" filter="url(#shadow)">
    <rect x="0" y="0" width="255" height="170" rx="22" fill="#ffffff"/>
    <rect x="30" y="35" width="86" height="12" rx="6" fill="#087ea4"/>
    <rect x="30" y="68" width="188" height="10" rx="5" fill="#cbd5e1"/>
    <rect x="30" y="96" width="145" height="10" rx="5" fill="#e2e8f0"/>
    <rect x="30" y="126" width="72" height="28" rx="8" fill="#f97316"/>
  </g>
</svg>
