<svg xmlns="http://www.w3.org/2000/svg" width="1200" height="900" viewBox="0 0 1200 900">
  <defs>
    <linearGradient id="bg" x1="0" x2="1" y1="0" y2="1">
      <stop offset="0" stop-color="#0b1220"/>
      <stop offset="0.58" stop-color="#102536"/>
      <stop offset="1" stop-color="#172554"/>
    </linearGradient>
    <filter id="shadow" x="-20%" y="-20%" width="140%" height="140%">
      <feDropShadow dx="0" dy="22" stdDeviation="24" flood-color="#020617" flood-opacity="0.34"/>
    </filter>
  </defs>
  <rect width="1200" height="900" fill="url(#bg)"/>
  <g opacity="0.1" stroke="#ffffff">
    <path d="M0 170H1200M0 340H1200M0 510H1200M0 680H1200"/>
    <path d="M170 0V900M340 0V900M510 0V900M680 0V900M850 0V900M1020 0V900"/>
  </g>
  <circle cx="930" cy="210" r="150" fill="#38bdf8" opacity="0.16"/>
  <circle cx="250" cy="700" r="190" fill="#f97316" opacity="0.14"/>
  <g filter="url(#shadow)">
    <rect x="185" y="170" width="830" height="560" rx="32" fill="#ffffff" opacity="0.96"/>
    <rect x="245" y="235" width="710" height="300" rx="24" fill="#0f172a"/>
    <circle cx="600" cy="385" r="78" fill="#f97316"/>
    <path d="M577 340L660 385L577 430Z" fill="#ffffff"/>
    <rect x="275" y="590" width="165" height="26" rx="13" fill="#087ea4"/>
    <rect x="275" y="642" width="575" height="14" rx="7" fill="#cbd5e1"/>
    <rect x="275" y="676" width="455" height="14" rx="7" fill="#e2e8f0"/>
    <g transform="translate(800 585)">
      <rect x="0" y="0" width="120" height="88" rx="14" fill="#f8fafc" stroke="#d9e2ea"/>
      <rect x="24" y="54" width="10" height="18" rx="5" fill="#087ea4"/>
      <rect x="44" y="35" width="10" height="37" rx="5" fill="#087ea4"/>
      <rect x="64" y="20" width="10" height="52" rx="5" fill="#f97316"/>
      <rect x="84" y="43" width="10" height="29" rx="5" fill="#087ea4"/>
    </g>
  </g>
</svg>
